#!OML:ASF X:\für Bonn\!DataBase\2005_08_10_Bjorn_Final\c3d\bjorn.ASF
:FULLY-SPECIFIED
:DEGREES
296
root -0.0111312 2.43285 8.6527 -2405.64 -11.4699 182.72
lowerback 51.8426 3.65843 10.9966
upperback 28.1836 -7.46896 3.19832
thorax 12.0418 -10.1937 -1.04493
lowerneck 8.68509 11.1283 1.2696
upperneck -0.246044 14.5465 -10.0002
head -0.659469 7.43002 -3.8352
rclavicle 1.58282e-014 -3.01159e-014
rhumerus -418.901 -2.17807 274.928
rradius 59.6098
rwrist -37.2318
rhand -33.7866 -7.35203
rfingers 7.12502
rthumb -6.97359 -37.2172
lclavicle 1.58282e-014 -3.01159e-014
lhumerus -64.6362 -38.1434 99.8187
lradius 69.2124
lwrist 47.6077
lhand -33.7464 26.1076
lfingers 7.12502
lthumb -6.93477 775.974
rfemur -262.83 -142.06 183.133
rtibia 120.858
rfoot 36.2773 16.4893
rtoes 3.40476
lfemur 97.0282 169.894 159.811
ltibia 122.468
lfoot 28.499 -7.3078
ltoes -7.21569
297
root -0.0188412 2.43128 8.65022 -2405.62 -11.4061 182.793
lowerback 51.7866 3.71003 10.945
upperback 28.1923 -7.40982 3.14014
thorax 12.044 -10.1515 -1.10308
lowerneck 8.67707 11.1723 1.36422
upperneck -0.336026 14.612 -10.05
head -0.672117 7.46739 -3.87126
rclavicle 2.13694e-015 -4.29375e-014
rhumerus -418.629 -2.0127 274.95
rradius 59.271
rwrist -34.8
rhand -34.2029 -5.15254
rfingers 7.12502
rthumb -7.37543 -35.004
lclavicle 2.13694e-015 -4.29375e-014
lhumerus -65.0791 -38.5796 99.8532
lradius 69.9708
lwrist 46.9074
lhand -33.5253 26.7655
lfingers 7.12502
lthumb -6.72135 776.639
rfemur -262.812 -142.266 183.123
rtibia 120.865
rfoot 36.2651 16.3718
rtoes 3.41606
lfemur 96.9156 169.777 159.84
ltibia 122.518
lfoot 28.5585 -7.31293
ltoes -7.21477
298
root -0.0264219 2.42973 8.64732 -2405.58 -11.3521 182.857
lowerback 51.6952 3.77314 10.8526
upperback 28.2 -7.34592 3.07607
thorax 12.0452 -10.1067 -1.15138
lowerneck 8.65322 11.2302 1.4384
upperneck -0.368141 14.6988 -10.0406
head -0.66771 7.51212 -3.88031
rclavicle -6.48535e-014 8.23962e-014
rhumerus -418.34 -1.89915 275.101
rradius 59.0379
rwrist -32.1227
rhand -34.4853 -2.73808
rfingers 7.12502
rthumb -7.64797 -32.5798
lclavicle -6.48535e-014 8.23962e-014
lhumerus -65.5081 -39.1507 99.9259
lradius 70.7581
lwrist 46.2216
lhand -33.3801 27.1952
lfingers 7.12502
lthumb -6.58116 777.073
rfemur -262.821 -142.438 183.125
rtibia 120.877
rfoot 36.2416 16.281
rtoes 3.39369
lfemur 96.7816 169.682 159.853
ltibia 122.578
lfoot 28.6363 -7.32332
ltoes -7.24534
299
root -0.0336017 2.42667 8.64467 -2405.54 -11.3163 182.926
lowerback 51.5735 3.84627 10.7102
upperback 28.2061 -7.28864 3.02503
thorax 12.0478 -10.0723 -1.16247
lowerneck 8.71668 11.2787 1.49579
upperneck -0.4675 14.7622 -10.0755
head -0.699794 7.54929 -3.91159
rclavicle -1.80397e-014 -3.91606e-014
rhumerus -418.043 -1.79368 275.369
rradius 58.8867
rwrist -29.1187
rhand -34.7522 -0.301221
rfingers 7.12502
rthumb -7.90565 -30.1334
lclavicle -1.80397e-014 -3.91606e-014
lhumerus -65.8798 -39.7445 99.997
lradius 71.5779
lwrist 45.4958
lhand -33.4055 27.3476
lfingers 7.12502
lthumb -6.60571 777.225
rfemur -262.856 -142.579 183.127
rtibia 120.891
rfoot 36.222 16.2368
rtoes 3.20064
lfemur 96.6549 169.617 159.853
ltibia 122.627
lfoot 28.7167 -7.26897
ltoes -7.14112
300
root -0.0399882 2.42389 8.64248 -2405.53 -11.2754 182.994
lowerback 51.4547 3.94792 10.5351
upperback 28.2108 -7.2133 2.99881
thorax 12.0512 -10.0398 -1.13672
lowerneck 8.79471 11.3265 1.55205
upperneck -0.5643 14.8243 -10.1002
head -0.734542 7.58581 -3.94044
rclavicle -3.58806e-014 -1.41137e-014
rhumerus -417.776 -1.6266 275.67
rradius 58.8773
rwrist -26.0484
rhand -35.1352 2.17486
rfingers 7.12502
rthumb -8.27526 -27.6431
lclavicle -3.58806e-014 -1.41137e-014
lhumerus -66.1609 -40.3593 100.028
lradius 72.4263
lwrist 44.6898
lhand -33.6056 27.0342
lfingers 7.12502
lthumb -6.79882 776.905
rfemur -262.856 -142.732 183.127
rtibia 120.896
rfoot 36.1638 16.2081
rtoes 3.02796
lfemur 96.5445 169.533 159.864
ltibia 122.679
lfoot 28.808 -7.28294
ltoes -7.10732
301
root -0.0458028 2.41918 8.6401 -2405.5 -11.2439 183.064
lowerback 51.3143 4.04209 10.3233
upperback 28.196 -7.14429 2.97053
thorax 12.0299 -10.0088 -1.09019
lowerneck 8.93117 11.3761 1.55526
upperneck -0.658569 14.8791 -10.1183
head -0.783699 7.61885 -3.96321
rclavicle -9.93923e-016 2.16675e-014
rhumerus -417.469 -1.35583 276.017
rradius 58.8574
rwrist -22.8879
rhand -35.5378 5.04187
rfingers 7.12502
rthumb -8.66378 -24.7603
lclavicle -9.93923e-016 2.16675e-014
lhumerus -66.4206 -40.9675 100.068
lradius 73.308
lwrist 43.7012
lhand -34.0617 26.1761
lfingers 7.12502
lthumb -7.23908 776.032
rfemur -262.888 -142.869 183.133
rtibia 120.914
rfoot 36.1275 16.1401
rtoes 2.79043
lfemur 96.4049 169.472 159.865
ltibia 122.733
lfoot 28.9014 -7.28307
ltoes -7.1053
302
root -0.0516261 2.41536 8.63978 -2405.49 -11.2039 183.131
lowerback 51.1509 4.14601 10.1088
upperback 28.1944 -7.07116 2.94595
thorax 12.029 -9.9778 -1.04428
lowerneck 9.09711 11.4189 1.56204
upperneck -0.782923 14.9229 -10.1377
head -0.848353 7.64798 -3.99113
rclavicle 1.43125e-014 -4.73108e-014
rhumerus -417.127 -1.0281 276.413
rradius 58.9113
rwrist -19.608
rhand -35.9921 8.11539
rfingers 7.12502
rthumb -9.1022 -21.6682
lclavicle 1.43125e-014 -4.73108e-014
lhumerus -66.5932 -41.6101 100.052
lradius 74.2072
lwrist 42.4716
lhand -34.6748 25.2139
lfingers 7.12502
lthumb -7.8309 775.049
rfemur -262.896 -143.03 183.139
rtibia 120.917
rfoot 36.0711 16.0636
rtoes 2.65696
lfemur 96.3 169.435 159.882
ltibia 122.773
lfoot 28.9711 -7.22746
ltoes -6.99602
303
root -0.0562099 2.41143 8.63922 -2405.47 -11.1514 183.204
lowerback 50.964 4.24946 9.89959
upperback 28.1896 -6.98375 2.90835
thorax 12.0246 -9.93113 -1.01803
lowerneck 9.28329 11.4535 1.63574
upperneck -0.89675 14.9646 -10.1511
head -0.908725 7.67614 -4.02933
rclavicle -1.51076e-014 -3.97569e-016
rhumerus -416.748 -0.755959 276.866
rradius 58.9898
rwrist -16.3205
rhand -36.5565 11.286
rfingers 7.12502
rthumb -9.64672 -18.4731
lclavicle -1.51076e-014 -3.97569e-016
lhumerus -66.6965 -42.3131 99.9382
lradius 75.1142
lwrist 41.1407
lhand -35.2723 24.3186
lfingers 7.12502
lthumb -8.40757 774.131
rfemur -262.902 -143.194 183.162
rtibia 120.92
rfoot 36.0312 15.9426
rtoes 2.54798
lfemur 96.1757 169.406 159.917
ltibia 122.817
lfoot 29.0567 -7.26318
ltoes -7.01908
304
root -0.0607503 2.40722 8.63911 -2405.47 -11.1166 183.27
lowerback 50.7877 4.35914 9.65092
upperback 28.1709 -6.8975 2.88042
thorax 12.0019 -9.89192 -0.958723
lowerneck 9.49683 11.4946 1.63802
upperneck -1.00382 15.006 -10.1252
head -0.980389 7.70315 -4.04504
rclavicle 3.70733e-014 -5.1684e-015
rhumerus -416.29 -0.448957 277.383
rradius 59.0828
rwrist -13.1486
rhand -37.2312 14.132
rfingers 7.12502
rthumb -10.2976 -15.5959
lclavicle 3.70733e-014 -5.1684e-015
lhumerus -66.7056 -43.0314 99.7382
lradius 76.0187
lwrist 40.0056
lhand -35.8485 23.4992
lfingers 7.12502
lthumb -8.96365 773.289
rfemur -262.891 -143.347 183.154
rtibia 120.921
rfoot 35.9873 15.8735
rtoes 2.35927
lfemur 96.1003 169.406 159.953
ltibia 122.851
lfoot 29.1464 -7.17316
ltoes -6.77734
305
root -0.0642277 2.40269 8.63911 -2405.46 -11.062 183.34
lowerback 50.5767 4.46994 9.41757
upperback 28.1461 -6.78846 2.85968
thorax 11.9766 -9.8328 -0.904147
lowerneck 9.77694 11.5111 1.64433
upperneck -1.15263 15.0103 -10.1032
head -1.07971 7.71392 -4.07062
rclavicle 4.96962e-015 -2.26615e-014
rhumerus -415.769 -0.181516 277.928
rradius 59.2562
rwrist -10.3293
rhand -37.8747 16.4377
rfingers 7.12502
rthumb -10.9184 -13.2584
lclavicle 4.96962e-015 -2.26615e-014
lhumerus -66.5313 -43.7856 99.3846
lradius 76.9114
lwrist 39.0603
lhand -36.2143 22.7678
lfingers 7.12502
lthumb -9.31662 772.542
rfemur -262.896 -143.511 183.185
rtibia 120.923
rfoot 35.9474 15.7522
rtoes 2.24575
lfemur 96.0002 169.383 160.004
ltibia 122.887
lfoot 29.2468 -7.13615
ltoes -6.59367
306
root -0.0674176 2.39812 8.64019 -2405.45 -11.0003 183.419
lowerback 50.3453 4.57509 9.19489
upperback 28.1184 -6.67273 2.84121
thorax 11.9509 -9.7652 -0.85355
lowerneck 10.0795 11.5228 1.64467
upperneck -1.28152 15.0081 -10.0551
head -1.17967 7.72026 -4.08763
rclavicle -3.77691e-015 -2.0276e-014
rhumerus -415.158 0.117803 278.464
rradius 59.5133
rwrist -7.93943
rhand -38.3221 17.9799
rfingers 7.12502
rthumb -11.3499 -11.6929
lclavicle -3.77691e-015 -2.0276e-014
lhumerus -66.1569 -44.5344 98.8182
lradius 77.799
lwrist 38.3566
lhand -36.3404 22.1103
lfingers 7.12502
lthumb -9.43823 771.879
rfemur -262.89 -143.684 183.219
rtibia 120.918
rfoot 35.9311 15.6042
rtoes 2.229
lfemur 95.8943 169.373 160.063
ltibia 122.926
lfoot 29.3232 -7.21536
ltoes -6.74641
307
root -0.0699775 2.39301 8.64131 -2405.46 -10.9701 183.477
lowerback 50.1098 4.70456 8.91483
upperback 28.0826 -6.54166 2.83632
thorax 11.9159 -9.69789 -0.763578
lowerneck 10.4165 11.5249 1.649
upperneck -1.40618 14.9909 -10.0284
head -1.28367 7.71935 -4.11527
rclavicle -3.57812e-015 -1.63003e-014
rhumerus -414.445 0.427106 279.038
rradius 59.8303
rwrist -5.87172
rhand -38.5108 18.8878
rfingers 7.12502
rthumb -11.5319 -10.7749
lclavicle -3.57812e-015 -1.63003e-014
lhumerus -65.606 -45.2955 98.1083
lradius 78.6683
lwrist 37.8432
lhand -36.4205 21.5691
lfingers 7.12502
lthumb -9.51558 771.334
rfemur -262.882 -143.848 183.219
rtibia 120.916
rfoot 35.8754 15.5229
rtoes 2.0594
lfemur 95.828 169.356 160.092
ltibia 122.947
lfoot 29.4336 -7.17647
ltoes -6.54168
308
root -0.0717475 2.38699 8.64306 -2405.47 -10.9406 183.558
lowerback 49.8513 4.8046 8.66128
upperback 28.0337 -6.41108 2.80368
thorax 11.864 -9.61287 -0.71189
lowerneck 10.828 11.5245 1.71643
upperneck -1.55829 14.9767 -9.99228
head -1.4061 7.72154 -4.15835
rclavicle -3.83654e-014 1.82882e-014
rhumerus -413.642 0.665115 279.657
rradius 60.1838
rwrist -4.15838
rhand -38.1701 19.412
rfingers 7.12502
rthumb -11.2033 -10.2689
lclavicle -3.83654e-014 1.82882e-014
lhumerus -64.9297 -46.0725 97.2381
lradius 79.4411
lwrist 37.3923
lhand -36.4266 20.9431
lfingers 7.12502
lthumb -9.52145 770.708
rfemur -262.888 -143.992 183.235
rtibia 120.912
rfoot 35.8653 15.396
rtoes 1.91601
lfemur 95.7385 169.37 160.128
ltibia 122.966
lfoot 29.5458 -7.14019
ltoes -6.41334
